<svg id="visual" viewBox="0 0 900 600" width="900" height="600" xmlns="http://www.w3.org/2000/svg" xmlns:xlink="http://www.w3.org/1999/xlink" version="1.1"><rect x="0" y="0" width="900" height="600" fill="#434875"></rect><path d="M0 315L30 329.5C60 344 120 373 180 379.8C240 386.7 300 371.3 360 354.5C420 337.7 480 319.3 540 326C600 332.7 660 364.3 720 370.7C780 377 840 358 870 348.5L900 339L900 601L870 601C840 601 780 601 720 601C660 601 600 601 540 601C480 601 420 601 360 601C300 601 240 601 180 601C120 601 60 601 30 601L0 601Z" fill="#d6d7d9"></path><path d="M0 412L30 406.7C60 401.3 120 390.7 180 392.7C240 394.7 300 409.3 360 409.2C420 409 480 394 540 394.5C600 395 660 411 720 408.2C780 405.3 840 383.7 870 372.8L900 362L900 601L870 601C840 601 780 601 720 601C660 601 600 601 540 601C480 601 420 601 360 601C300 601 240 601 180 601C120 601 60 601 30 601L0 601Z" fill="#e3e4e6"></path><path d="M0 414L30 413.8C60 413.7 120 413.3 180 425.2C240 437 300 461 360 474.7C420 488.3 480 491.7 540 494.5C600 497.3 660 499.7 720 487.3C780 475 840 448 870 434.5L900 421L900 601L870 601C840 601 780 601 720 601C660 601 600 601 540 601C480 601 420 601 360 601C300 601 240 601 180 601C120 601 60 601 30 601L0 601Z" fill="#f1f2f2"></path><path d="M0 542L30 537.3C60 532.7 120 523.3 180 520.5C240 517.7 300 521.3 360 528.8C420 536.3 480 547.7 540 545C600 542.3 660 525.7 720 524C780 522.3 840 535.7 870 542.3L900 549L900 601L870 601C840 601 780 601 720 601C660 601 600 601 540 601C480 601 420 601 360 601C300 601 240 601 180 601C120 601 60 601 30 601L0 601Z" fill="#ffffff"></path></svg>